<?xml version="1.0" encoding="utf-8"?>
<!-- Generator: Adobe Illustrator 15.1.0, SVG Export Plug-In . SVG Version: 6.00 Build 0)  -->
<!DOCTYPE svg PUBLIC "-//W3C//DTD SVG 1.1//EN" "http://www.w3.org/Graphics/SVG/1.1/DTD/svg11.dtd">
<svg version="1.1" id="Layer_1_copy" xmlns="http://www.w3.org/2000/svg" xmlns:xlink="http://www.w3.org/1999/xlink" x="0px"
	 y="0px" width="600px" height="237.018px" viewBox="0 0 600 237.018" enable-background="new 0 0 600 237.018"
	 xml:space="preserve">
<polygon fill="#A53F23" points="106.307,91.062 152.112,237.018 193.599,91.062 "/>
<polygon fill="#A53F23" points="164.089,223.319 216.071,91.062 295.586,91.062 "/>
<polygon fill="#A53F23" points="138.324,222.823 82.972,91.062 6.912,91.062 "/>
<polygon opacity="0.78" fill="#A53F23" points="0,79.643 83.149,79.643 38.525,34.454 "/>
<polygon opacity="0.78" fill="#A53F23" points="87.483,20.378 95.134,79.643 147.151,20.378 "/>
<polygon opacity="0.78" fill="#A53F23" points="110.079,79.643 149.919,35.155 193.05,79.643 "/>
<polygon opacity="0.78" fill="#A53F23" points="151.555,20.378 208.775,79.643 189.498,20.378 "/>
<polygon opacity="0.78" fill="#A53F23" points="211.716,55.875 219.671,79.643 235.64,55.875 "/>
<polygon opacity="0.78" fill="#A53F23" points="68.819,51.04 85.219,68.627 80.506,37.518 "/>
<polygon opacity="0.78" fill="#A53F23" points="229.768,79.643 260.979,37.515 302.354,79.643 "/>
<text transform="matrix(1 0 0 1 320.3154 153.8511)"><tspan x="0" y="0" font-family="'GothamBold'" font-size="88.1253" letter-spacing="-4">Br</tspan><tspan x="92.354" y="0" font-family="'GothamBold'" font-size="88.1253" letter-spacing="-3">i</tspan><tspan x="115.705" y="0" font-family="'GothamBold'" font-size="88.1253" letter-spacing="-4">dg</tspan><tspan x="226.564" y="0" font-family="'GothamBold'" font-size="88.1253" letter-spacing="-3">e</tspan></text>
<text transform="matrix(1 0 0 1 321.8662 211.9868)" fill="#A53F23" font-family="'GothamBold'" font-size="53.2423" letter-spacing="-2">Cape Town</text>
<text transform="matrix(1 0 0 1 320.2783 80.2319)" opacity="0.78"><tspan x="0" y="0" font-family="'GothamBold'" font-size="88.1253" letter-spacing="-4">Ra</tspan><tspan x="106.719" y="0" font-family="'GothamBold'" font-size="88.1253" letter-spacing="-3">ils</tspan></text>
</svg>
